<?xml version="1.0" encoding="UTF-8" standalone="no"?>
<!-- Generator: Adobe Illustrator 19.0.0, SVG Export Plug-In . SVG Version: 6.00 Build 0)  -->

<svg
   version="1.1"
   id="Capa_1"
   x="0px"
   y="0px"
   viewBox="0 0 60 60"
   style="enable-background:new 0 0 60 60;"
   xml:space="preserve"
   sodipodi:docname="logo.svg"
   inkscape:version="1.1.2 (b8e25be833, 2022-02-05)"
   xmlns:inkscape="http://www.inkscape.org/namespaces/inkscape"
   xmlns:sodipodi="http://sodipodi.sourceforge.net/DTD/sodipodi-0.dtd"
   xmlns:xlink="http://www.w3.org/1999/xlink"
   xmlns="http://www.w3.org/2000/svg"
   xmlns:svg="http://www.w3.org/2000/svg"><defs
   id="defs47"><linearGradient
     inkscape:collect="always"
     id="linearGradient2269"><stop
       style="stop-color:#ff0000;stop-opacity:1"
       offset="0"
       id="stop2265" /><stop
       style="stop-color:#fffd00;stop-opacity:1"
       offset="0.25"
       id="stop2959" /><stop
       style="stop-color:#00ff0a;stop-opacity:1"
       offset="0.33333334"
       id="stop3217" /><stop
       style="stop-color:#00fdff;stop-opacity:1"
       offset="0.41666666"
       id="stop4563" /><stop
       style="stop-color:#1b00ff;stop-opacity:1"
       offset="0.58333331"
       id="stop4885" /><stop
       style="stop-color:#ff00f6;stop-opacity:1"
       offset="0.75"
       id="stop5015" /><stop
       style="stop-color:#ff0000;stop-opacity:1"
       offset="1"
       id="stop2267" /></linearGradient><linearGradient
     inkscape:collect="always"
     xlink:href="#linearGradient2269"
     id="linearGradient858"
     x1="17.750969"
     y1="17.389694"
     x2="48.816757"
     y2="48.913956"
     gradientUnits="userSpaceOnUse"
     gradientTransform="matrix(1.0855886,0,0,1.0855886,-2.5677541,-2.5670053)" /></defs><sodipodi:namedview
   id="namedview45"
   pagecolor="#ffffff"
   bordercolor="#666666"
   borderopacity="1.0"
   inkscape:pageshadow="2"
   inkscape:pageopacity="0.0"
   inkscape:pagecheckerboard="0"
   showgrid="true"
   inkscape:zoom="7.6131832"
   inkscape:cx="26.27022"
   inkscape:cy="34.873717"
   inkscape:window-width="1920"
   inkscape:window-height="991"
   inkscape:window-x="-9"
   inkscape:window-y="-9"
   inkscape:window-maximized="1"
   inkscape:current-layer="Capa_1" />
<path
   style="fill:#e7eced;fill-opacity:1"
   d="M51.2,60H8.8C3.94,60,0,56.06,0,51.2V8.8C0,3.94,3.94,0,8.8,0H51.2C56.06,0,60,3.94,60,8.8V51.2  C60,56.06,56.06,60,51.2,60z"
   id="path2" />





<g
   id="g14">
</g>
<g
   id="g16">
</g>
<g
   id="g18">
</g>
<g
   id="g20">
</g>
<g
   id="g22">
</g>
<g
   id="g24">
</g>
<g
   id="g26">
</g>
<g
   id="g28">
</g>
<g
   id="g30">
</g>
<g
   id="g32">
</g>
<g
   id="g34">
</g>
<g
   id="g36">
</g>
<g
   id="g38">
</g>
<g
   id="g40">
</g>
<g
   id="g42">
</g>
<path
   id="rect974"
   style="fill:url(#linearGradient858);fill-opacity:1;fill-rule:evenodd;stroke-width:1.59455;stroke-linecap:round;stroke-linejoin:round"
   d="m 27.313497,8.4245794 c -1.567641,0.01018 -3.131988,0.6229248 -4.325392,1.8319306 l -12.92529,13.092793 c -2.3868118,2.418014 -2.3607654,6.287294 0.05725,8.674107 l 8.729235,8.614739 4.363558,4.308429 c 2.418015,2.386813 6.287294,2.362887 8.674107,-0.05513 l 4.30843,-4.365678 10.474235,10.340656 c 0.967205,0.954726 2.51407,0.943892 3.468793,-0.02332 l 0.862958,-0.871441 c 0.954726,-0.967204 0.943893,-2.516189 -0.02332,-3.470914 l -10.474242,-10.338538 4.30843,-4.365677 c 2.386811,-2.418016 2.360764,-6.285174 -0.05724,-8.671987 L 40.391447,18.816122 31.662212,10.199263 C 30.453203,9.0058556 28.881137,8.4143999 27.313497,8.4245794 Z" /><rect
   style="fill:#6a6c6d;fill-rule:evenodd;stroke-width:1.3;stroke-linecap:round;stroke-linejoin:round;fill-opacity:1"
   id="rect976"
   width="0.086581707"
   height="1.488153"
   x="49.913418"
   y="23.511847"
   ry="0.043290854" /></svg>
